<svg width="800" height="600" xmlns="http://www.w3.org/2000/svg">
 <g id="Layer_1">
  <title>Layer 1</title>
  <path stroke="#000" id="svg_6" d="m242.00019,76.49998l343.99978,0l0,395.19993l-172,98.80009l-171.99998,-98.80009l0.0002,-395.19993z" fill="#5232f2"/>
  <path stroke="#000" id="svg_4" d="m235.00019,63.49996l343.99979,0l0,396.79995l-172.00001,99.2001l-171.99997,-99.2001l0.0002,-396.79995z" fill="#5739ef"/>
  <path stroke="#000" id="svg_7" d="m228.00021,52.49997l343.99978,0l0,395.99997l-172,99.0001l-171.99998,-99.0001l0.0002,-395.99997z" fill="#755bf7"/>
  <path stroke="#000" id="svg_9" d="m362.69676,73.79059l74.60648,0l0,0c9.77366,0 17.69676,7.38731 17.69676,16.5c0,9.11269 -7.9231,16.5 -17.69676,16.5l-74.60648,0l0,0c-9.77365,0 -17.69676,-7.3873 -17.69676,-16.5c0,-9.1127 7.92311,-16.5 17.69676,-16.5z" fill="#ffffff"/>
 </g>
</svg>